<?xml version="1.0" standalone="no"?>
<!DOCTYPE svg PUBLIC "-//W3C//DTD SVG 20010904//EN"
 "http://www.w3.org/TR/2001/REC-SVG-20010904/DTD/svg10.dtd">
<svg version="1.0" xmlns="http://www.w3.org/2000/svg"
 width="700.000000pt" height="700.000000pt" viewBox="0 0 700.000000 700.000000"
 preserveAspectRatio="xMidYMid meet">
<metadata>
Created by potrace 1.11, written by Peter Selinger 2001-2013
</metadata>
<g transform="translate(0.000000,700.000000) scale(0.100000,-0.100000)"
fill="#000000" stroke="none">
<path d="M5120 6443 c-172 -28 -345 -107 -463 -212 -134 -120 -3734 -3732
-3749 -3762 -13 -25 -166 -613 -193 -739 -2 -8 -31 -125 -65 -260 -34 -135
-63 -265 -65 -290 -9 -193 174 -341 365 -295 19 5 40 10 45 11 163 36 1149
291 1178 304 30 14 570 548 1918 1897 1032 1033 1890 1900 1908 1927 48 74
139 266 126 266 -3 0 0 12 6 27 23 60 32 259 17 368 -47 341 -320 644 -665
737 -75 20 -293 33 -363 21z m274 -612 c117 -57 180 -160 179 -292 -1 -150
157 20 -1867 -2004 -1672 -1672 -1818 -1815 -1858 -1825 -23 -6 -52 -13 -63
-16 -11 -3 -31 -7 -44 -10 -14 -3 -56 -14 -95 -24 -39 -11 -82 -21 -96 -24
-14 -2 -79 -18 -144 -35 -66 -17 -121 -29 -124 -27 -2 3 15 78 38 168 23 90
44 172 46 183 2 11 13 56 24 100 12 44 25 98 31 120 9 35 220 251 1807 1838
988 989 1815 1811 1838 1827 96 68 218 76 328 21z"/>
<path d="M3421 1448 c-87 -24 -173 -111 -201 -202 -16 -50 -8 -151 16 -202 39
-84 121 -146 214 -162 60 -10 2695 -8 2740 2 233 55 304 360 118 506 -92 73 3
69 -1500 68 -841 0 -1366 -4 -1387 -10z"/>
</g>
</svg>
